<svg width="50" height="51" viewBox="0 0 50 51" fill="none" xmlns="http://www.w3.org/2000/svg">
<rect opacity="0.2" y="0.148804" width="50" height="50" rx="25" fill="white"/>
<path d="M33.0221 32.0893L29.9186 29.5832C29.2827 29.0611 28.3669 29.1655 27.8327 29.7921C27.2731 30.4447 26.9169 30.8885 26.7898 30.9929C25.8486 31.9588 23.8898 30.5491 21.8039 28.4085C19.718 26.2679 18.3698 24.2839 19.311 23.318C19.4127 23.2136 19.8452 22.822 20.4811 22.2477C21.0917 21.6995 21.1934 20.7598 20.6846 20.1071L18.2426 16.9223C17.8102 16.3741 17.0725 16.1914 16.4619 16.4524C15.6225 16.8179 14.1216 18.0971 13.7146 18.5147C11.4761 20.8381 14.2743 26.1113 19.1584 31.1495C24.0425 36.1878 29.2064 39.0593 31.4449 36.736C31.8519 36.3183 33.0984 34.7781 33.4545 33.9166C33.7343 33.264 33.5563 32.5331 33.0221 32.0893Z" fill="white"/>
<path d="M25.3905 20.8906C24.7291 20.734 24.0932 21.2561 24.144 21.9609C24.1695 22.4047 24.5002 22.7701 24.9072 22.9007C25.4414 23.0312 25.9501 23.3184 26.3571 23.736C26.7641 24.1537 27.044 24.6758 27.1712 25.224C27.2729 25.6678 27.629 25.9811 28.0869 26.0072C28.7737 26.0594 29.2825 25.4067 29.1299 24.728C28.9518 23.8405 28.4939 22.979 27.8071 22.2742C27.1203 21.5693 26.2808 21.0994 25.3905 20.8906Z" fill="white"/>
<path d="M32.1063 26.3205C32.7168 26.3727 33.2256 25.8245 33.1747 25.198C32.9966 23.1096 32.1317 21.0473 30.58 19.4549C29.0283 17.8625 27.0187 16.9749 24.9837 16.7922C24.3732 16.74 23.839 17.2621 23.8898 17.8886C23.9153 18.3846 24.2968 18.8023 24.8056 18.8545C26.4082 18.985 27.9599 19.6898 29.1555 20.9429C30.3765 22.1959 31.0379 23.7883 31.1905 25.4068C31.1905 25.9028 31.5975 26.2944 32.1063 26.3205Z" fill="white"/>
<path d="M33.3273 16.6093C30.9107 14.1555 27.7818 12.8502 24.602 12.7458C24.017 12.7197 23.5337 13.2418 23.5845 13.8422C23.61 14.3643 24.0424 14.782 24.5512 14.8081C27.2222 14.9125 29.8677 16.0089 31.8773 18.0973C33.9123 20.1857 34.9807 22.9006 35.0571 25.6155C35.0825 26.1376 35.4641 26.5814 35.9983 26.6075C36.5833 26.6597 37.0921 26.1637 37.0667 25.5633C36.9903 22.3002 35.7184 19.0893 33.3273 16.6093Z" fill="white"/>
</svg>
