<svg width="16" height="20" viewBox="0 0 16 20" fill="none" xmlns="http://www.w3.org/2000/svg">
<path d="M14.4951 11.6815L14.1343 12.3296C13.6858 13.1351 13.1148 13.8619 12.4428 14.4825L8.16711 18.4314L3.89144 14.4825C3.2195 13.8619 2.64846 13.1351 2.19994 12.3296L1.83909 11.6815C1.13647 10.4197 0.863731 8.95355 1.06402 7.51484C1.20831 6.47829 1.59319 5.4925 2.18623 4.64048L2.42104 4.30312C3.39647 2.9017 4.82638 1.90261 6.45448 1.48492C7.57894 1.19643 8.75529 1.19643 9.87975 1.48492C11.5078 1.90261 12.9378 2.9017 13.9132 4.30312L14.1481 4.64048C14.7411 5.4925 15.1259 6.47829 15.2703 7.51484C15.4705 8.95355 15.1978 10.4197 14.4951 11.6815ZM8.16711 12.7093C10.3503 12.7093 12.12 10.8931 12.12 8.6527C12.12 6.4123 10.3503 4.5961 8.16711 4.5961C5.98395 4.5961 4.21414 6.4123 4.21414 8.6527C4.21414 10.8931 5.98395 12.7093 8.16711 12.7093Z" fill="#EF7F1A" stroke="#EF7F1A" stroke-width="1.07006"/>
</svg>
