<svg width="18" height="19" viewBox="0 0 18 19" fill="none" xmlns="http://www.w3.org/2000/svg">
<path d="M14.4907 14.8034L12.2522 12.9958C11.7935 12.6192 11.133 12.6945 10.7476 13.1464C10.344 13.6172 10.0871 13.9373 9.99535 14.0126C9.31645 14.7093 7.90362 13.6925 6.39904 12.1485C4.89446 10.6044 3.92199 9.17338 4.60089 8.47669C4.67428 8.40137 4.9862 8.11893 5.44492 7.70468C5.88528 7.30926 5.95868 6.63139 5.59171 6.16065L3.83025 3.86344C3.51832 3.46802 2.98622 3.33621 2.54585 3.52451C1.94035 3.78812 0.857788 4.71077 0.564212 5.01205C-1.05046 6.68788 0.967879 10.4915 4.49079 14.1256C8.01371 17.7597 11.7385 19.8309 13.3531 18.1551C13.6467 17.8538 14.5458 16.7429 14.8027 16.1215C15.0045 15.6508 14.8761 15.1235 14.4907 14.8034Z" fill="#EF7F1A"/>
<path d="M8.9861 6.72571C8.50904 6.61273 8.05033 6.98932 8.08702 7.49772C8.10537 7.81782 8.3439 8.08144 8.63748 8.17559C9.0228 8.26973 9.38977 8.47686 9.68335 8.77813C9.97692 9.07941 10.1788 9.456 10.2705 9.85142C10.3439 10.1715 10.6008 10.3975 10.931 10.4163C11.4265 10.454 11.7934 9.98323 11.6833 9.49366C11.5549 8.85345 11.2246 8.23207 10.7292 7.72368C10.2338 7.21528 9.6283 6.87634 8.9861 6.72571Z" fill="#EF7F1A"/>
<path d="M13.8302 10.6422C14.2706 10.6799 14.6376 10.2845 14.6009 9.83257C14.4724 8.32621 13.8486 6.83867 12.7293 5.69006C11.6101 4.54146 10.1605 3.90125 8.69266 3.76945C8.25229 3.73179 7.86697 4.10838 7.90367 4.56029C7.92202 4.91805 8.19725 5.21932 8.56422 5.25698C9.72017 5.35113 10.8394 5.85953 11.7018 6.76335C12.5825 7.66717 13.0596 8.81577 13.1697 9.98321C13.1697 10.341 13.4633 10.6234 13.8302 10.6422Z" fill="#EF7F1A"/>
<path d="M14.7109 3.63755C12.9678 1.86757 10.7109 0.926093 8.41738 0.850775C7.99537 0.831945 7.64675 1.20854 7.68344 1.64162C7.70179 2.01821 8.01372 2.31948 8.38069 2.33831C10.3073 2.41363 12.2155 3.20447 13.6651 4.71084C15.1329 6.21721 15.9036 8.17548 15.9586 10.1338C15.977 10.5103 16.2522 10.8305 16.6375 10.8493C17.0595 10.8869 17.4265 10.5292 17.4082 10.0961C17.3531 7.7424 16.4357 5.42636 14.7109 3.63755Z" fill="#EF7F1A"/>
</svg>
