<svg width="24" height="24" viewBox="0 0 24 24" fill="none" xmlns="http://www.w3.org/2000/svg">
<path d="M10.9626 3.38018C11.2619 2.45887 12.5654 2.45886 12.8647 3.38018L14.302 7.80373C14.4359 8.21575 14.8198 8.49471 15.2531 8.49471H19.9043C20.873 8.49471 21.2758 9.73433 20.4921 10.3037L16.7292 13.0376C16.3787 13.2923 16.232 13.7437 16.3659 14.1557L17.8032 18.5792C18.1025 19.5005 17.0481 20.2667 16.2643 19.6973L12.5014 16.9634C12.151 16.7087 11.6764 16.7087 11.3259 16.9634L7.56297 19.6973C6.77925 20.2667 5.72477 19.5005 6.02413 18.5792L7.46143 14.1557C7.5953 13.7437 7.44864 13.2923 7.09816 13.0376L3.33525 10.3037C2.55154 9.73433 2.95432 8.49471 3.92304 8.49471H8.57424C9.00747 8.49471 9.39142 8.21575 9.5253 7.80373L10.9626 3.38018Z" fill="#FFBE16"/>
</svg>
