<svg width="61" height="61" viewBox="0 0 61 61" fill="none" xmlns="http://www.w3.org/2000/svg">
<circle cx="30.0998" cy="30.2288" r="30.0999" fill="white"/>
<path d="M43.9615 34.9793C43.9615 36.5368 43.4424 37.8866 42.404 39.0288C41.4695 40.0671 40.1197 40.5863 38.3545 40.5863C36.5894 40.5863 35.1876 40.0671 34.1493 39.0288C33.111 37.8866 32.5918 36.5368 32.5918 34.9793C32.5918 31.1375 33.8378 27.6591 36.3298 24.5441C38.8218 21.4291 41.158 19.8716 43.3385 19.8716C44.4807 19.8716 45.0518 20.3388 45.0518 21.2733C45.0518 21.8963 44.6884 22.5193 43.9615 23.1423C41.9887 24.6998 40.6908 26.8803 40.0678 29.6838C42.6636 30.3068 43.9615 32.0719 43.9615 34.9793ZM26.5176 34.9793C26.5176 36.5368 25.9984 37.8866 24.9601 39.0288C24.0256 40.0671 22.6758 40.5863 20.9106 40.5863C19.1455 40.5863 17.7437 40.0671 16.7054 39.0288C15.6671 37.8866 15.1479 36.5368 15.1479 34.9793C15.1479 31.1375 16.3939 27.6591 18.8859 24.5441C21.3779 21.4291 23.7141 19.8716 25.8946 19.8716C27.0368 19.8716 27.6078 20.3388 27.6078 21.2733C27.6078 21.8963 27.2444 22.5193 26.5176 23.1423C24.5448 24.6998 23.2469 26.8803 22.6239 29.6838C25.2197 30.3068 26.5176 32.0719 26.5176 34.9793Z" fill="#EF7F1A"/>
</svg>
