<svg width="45" height="44" viewBox="0 0 45 44" fill="none" xmlns="http://www.w3.org/2000/svg">
<rect x="0.879395" y="0.324951" width="43.7402" height="42.7211" rx="21.3606" fill="#EF7F1A"/>
<path d="M30.2146 14.0118C29.2159 13.003 28.0263 12.2031 26.7153 11.6589C25.4042 11.1147 23.9979 10.8369 22.5784 10.8419C16.6308 10.8419 11.7833 15.6893 11.7833 21.637C11.7833 23.5433 12.2844 25.3951 13.2212 27.0291L11.6962 32.6282L17.4151 31.1249C18.9946 31.9855 20.7702 32.443 22.5784 32.443C28.5261 32.443 33.3736 27.5956 33.3736 21.6479C33.3736 18.7612 32.2516 16.0488 30.2146 14.0118ZM22.5784 30.613C20.9663 30.613 19.3867 30.1772 18.0033 29.3602L17.6765 29.1642L14.2778 30.0574L15.182 26.7459L14.9641 26.4082C14.0684 24.9779 13.5928 23.3246 13.5916 21.637C13.5916 16.6915 17.6221 12.661 22.5675 12.661C24.964 12.661 27.2189 13.5978 28.9074 15.2972C29.7434 16.1294 30.4059 17.1192 30.8566 18.2094C31.3072 19.2995 31.537 20.4683 31.5326 21.6479C31.5544 26.5934 27.5239 30.613 22.5784 30.613ZM27.5022 23.9028C27.2298 23.7721 25.9009 23.1185 25.6612 23.0204C25.4107 22.9333 25.2364 22.8897 25.0512 23.1511C24.866 23.4235 24.354 24.0335 24.2015 24.2078C24.049 24.393 23.8856 24.4147 23.6133 24.2731C23.341 24.1424 22.4695 23.8483 21.4456 22.9333C20.6395 22.2143 20.1057 21.332 19.9423 21.0597C19.7898 20.7873 19.9205 20.6457 20.0621 20.5041C20.1819 20.3843 20.3344 20.1882 20.4652 20.0357C20.5959 19.8832 20.6504 19.7634 20.7375 19.5891C20.8246 19.4039 20.7811 19.2514 20.7157 19.1207C20.6504 18.99 20.1057 17.661 19.8878 17.1163C19.67 16.5935 19.4412 16.6588 19.2778 16.6479H18.7549C18.5698 16.6479 18.2865 16.7133 18.036 16.9856C17.7963 17.2579 17.0992 17.9115 17.0992 19.2405C17.0992 20.5695 18.0687 21.8549 18.1994 22.0291C18.3301 22.2143 20.1057 24.9376 22.8072 26.1032C23.4499 26.3864 23.951 26.5498 24.3431 26.6696C24.9858 26.8766 25.5741 26.8439 26.0425 26.7786C26.5653 26.7023 27.6438 26.125 27.8616 25.4932C28.0904 24.8614 28.0904 24.3276 28.0141 24.2078C27.9379 24.088 27.7745 24.0335 27.5022 23.9028Z" fill="white"/>
</svg>
