<svg width="18" height="18" viewBox="0 0 18 18" fill="none" xmlns="http://www.w3.org/2000/svg">
<path d="M14.4907 13.9533L12.2522 12.1457C11.7935 11.7691 11.133 11.8444 10.7476 12.2963C10.344 12.7671 10.0871 13.0872 9.99535 13.1625C9.31645 13.8592 7.90362 12.8424 6.39904 11.2984C4.89446 9.75433 3.92199 8.32329 4.60089 7.62659C4.67428 7.55127 4.9862 7.26883 5.44492 6.85458C5.88528 6.45916 5.95868 5.78129 5.5917 5.31055L3.83025 3.01334C3.51832 2.61792 2.98622 2.48612 2.54585 2.67441C1.94035 2.93803 0.857788 3.86068 0.564212 4.16195C-1.05046 5.83778 0.967879 9.64136 4.49079 13.2755C8.01371 16.9096 11.7385 18.9808 13.3531 17.305C13.6467 17.0037 14.5458 15.8928 14.8027 15.2714C15.0045 14.8007 14.8761 14.2734 14.4907 13.9533Z" fill="#EF7F1A"/>
<path d="M8.98604 5.87561C8.50898 5.76263 8.05027 6.13922 8.08696 6.64762C8.10531 6.96773 8.34384 7.23134 8.63742 7.32549C9.02274 7.41964 9.38971 7.62676 9.68328 7.92803C9.97686 8.22931 10.1787 8.6059 10.2704 9.00132C10.3438 9.32142 10.6007 9.54738 10.931 9.56621C11.4264 9.60387 11.7934 9.13313 11.6833 8.64356C11.5548 8.00335 11.2246 7.38198 10.7291 6.87358C10.2337 6.36518 9.62824 6.02625 8.98604 5.87561Z" fill="#EF7F1A"/>
<path d="M13.8302 9.79215C14.2705 9.8298 14.6375 9.43438 14.6008 8.98247C14.4724 7.47611 13.8485 5.98857 12.7293 4.83997C11.61 3.69136 10.1605 3.05116 8.6926 2.91935C8.25223 2.88169 7.86691 3.25828 7.90361 3.71019C7.92196 4.06795 8.19719 4.36923 8.56416 4.40689C9.72011 4.50103 10.8394 5.00943 11.7018 5.91325C12.5825 6.81707 13.0595 7.96568 13.1696 9.13311C13.1696 9.49087 13.4632 9.77332 13.8302 9.79215Z" fill="#EF7F1A"/>
<path d="M14.7109 2.78746C12.9678 1.01747 10.7109 0.0759955 8.41732 0.000677131C7.99531 -0.0181524 7.64668 0.358439 7.68338 0.79152C7.70173 1.16811 8.01365 1.46938 8.38062 1.48821C10.3072 1.56353 12.2155 2.35437 13.665 3.86074C15.1329 5.36711 15.9035 7.32538 15.9586 9.28366C15.9769 9.66025 16.2521 9.98036 16.6375 9.99918C17.0595 10.0368 17.4264 9.67908 17.4081 9.246C17.353 6.8923 16.4356 4.57627 14.7109 2.78746Z" fill="#EF7F1A"/>
</svg>
