<svg width="22" height="51" viewBox="0 0 22 51" fill="none" xmlns="http://www.w3.org/2000/svg">
<g clip-path="url(#clip0_2039_8)">
<path d="M1.3656e-05 25.1494C1.3656e-05 23.3167 -0.0186938 21.4839 1.3656e-05 19.6334C0.0374286 15.2739 3.10546 12.0355 7.65137 11.7508C10.1582 11.6085 12.7024 11.6796 15.1905 11.8932C18.8197 12.2134 21.8691 15.4697 21.9252 18.9572C21.9813 23.0675 21.9813 27.1957 21.9252 31.306C21.8691 34.8825 18.8759 38.1031 14.9473 38.459C12.1225 38.7081 9.20409 38.6547 6.37926 38.3344C2.93709 37.9786 0.224503 34.8825 0.0561361 31.5551C-0.0374013 29.4199 0.0374286 27.2846 0.0374286 25.1494C0.0374286 25.1494 0.0187211 25.1494 1.3656e-05 25.1494ZM20.1854 25.1494C20.148 25.1494 20.1293 25.1494 20.0919 25.1494C20.0919 22.9964 20.2041 20.8256 20.0731 18.6725C19.9048 15.8611 17.1548 13.5124 14.199 13.4946C12.1412 13.4768 10.0833 13.4946 8.02552 13.4946C4.62076 13.4946 1.85205 16.0213 1.79593 19.2953C1.73981 23.2099 1.73981 27.1067 1.79593 31.0213C1.83335 34.0996 4.24661 36.5907 7.4643 36.8042C9.67178 36.9466 11.8793 36.911 14.0867 36.8754C17.4541 36.822 20.2415 34.2597 20.2041 30.6476C20.1667 28.8327 20.1854 26.9821 20.1854 25.1494Z" fill="#C4C4C4"/>
<path d="M11.8793 2.94275C11.8793 4.72211 11.8606 6.25236 11.8793 7.78261C11.8793 8.40538 11.7483 8.97478 11 8.99257C10.2143 9.01036 10.1021 8.40538 10.1208 7.8004C10.1208 6.27015 10.1208 4.7399 10.1208 2.97834C9.29763 3.6367 8.62416 4.17051 7.95069 4.72211C7.65138 4.97122 7.35206 5.23812 7.05274 5.48723C6.58505 5.87869 6.06124 6.09222 5.57484 5.55841C5.08845 5.04239 5.36906 4.59755 5.85546 4.1883C7.01532 3.22745 8.19389 2.2488 9.35376 1.27015C11 -0.11775 10.8129 -0.260098 12.6463 1.30574C13.7687 2.28439 14.9286 3.22745 16.0885 4.17051C16.5748 4.56197 16.8367 5.0246 16.3878 5.54061C15.9201 6.07442 15.415 5.87869 14.9286 5.48723C13.9745 4.68652 13.0204 3.9036 11.8793 2.94275Z" fill="#C4C4C4"/>
<path d="M10.1021 47.3912C10.1021 45.8076 10.1021 44.4553 10.1021 43.103C10.1021 42.8005 10.0085 42.4446 10.1395 42.2311C10.3452 41.9108 10.7194 41.6795 11.0187 41.4126C11.2993 41.6973 11.8044 41.9642 11.8418 42.2667C11.9354 43.619 11.8793 44.9891 11.8793 46.3592C11.8793 46.6261 11.8793 46.893 11.8793 47.3735C12.7585 46.6617 13.4881 46.0745 14.2364 45.4695C14.4983 45.256 14.7415 45.0247 15.0034 44.8112C15.4524 44.4553 15.9575 44.2774 16.3878 44.7756C16.7806 45.2382 16.6684 45.7009 16.2007 46.0923C15.0969 47.0176 14.0119 47.9428 12.9082 48.8503C10.682 50.6831 11.2806 50.5585 9.12926 48.8503C8.02552 47.9784 6.9779 47.0532 5.89287 46.1457C5.42518 45.7542 5.14457 45.3094 5.63096 44.7756C6.13606 44.224 6.62246 44.4731 7.09015 44.8646C8.02552 45.6475 8.96089 46.4482 10.1021 47.3912Z" fill="#C4C4C4"/>
<path d="M11.8793 20.6832C11.8793 21.2704 11.8793 21.8993 11.8793 22.4803C11.8793 22.908 11.8418 23.37 11 23.37C10.3514 23.37 10.1395 23.0319 10.1208 22.4803C10.1208 21.306 10.1208 20.1138 10.1208 18.9394C10.1208 18.3522 10.364 17.943 11.0374 17.9608C11.6361 17.9786 11.8793 18.37 11.8793 18.9216C11.8606 19.5088 11.8793 20.096 11.8793 20.6832Z" fill="#C4C4C4"/>
</g>
<defs>
<clipPath id="clip0_2039_8">
<rect width="22" height="50" fill="white" transform="translate(0 0.184814)"/>
</clipPath>
</defs>
</svg>
