<svg width="17" height="17" viewBox="0 0 17 17" fill="none" xmlns="http://www.w3.org/2000/svg">
<path d="M8.86835 16.8772C13.2866 16.8772 16.8683 13.2954 16.8683 8.87717C16.8683 4.45889 13.2866 0.877167 8.86835 0.877167C4.45007 0.877167 0.868347 4.45889 0.868347 8.87717C0.868347 13.2954 4.45007 16.8772 8.86835 16.8772Z" fill="#EF7F1A" stroke="#2B2A29" stroke-width="0.033862" stroke-miterlimit="22.9256"/>
<path d="M15.1528 8.3418L2.43024 8.3417L8.79156 1.98048L15.1528 8.3418Z" fill="#2B2A29" stroke="#EF7F1A" stroke-width="0.033862" stroke-miterlimit="22.9256"/>
<path d="M15.1979 9.73192L2.47531 9.73186L8.83663 3.3706L15.1979 9.73192Z" fill="#2B2A29" stroke="#EF7F1A" stroke-width="0.0846647" stroke-miterlimit="22.9256"/>
<path d="M15.1529 11.1596L2.43033 11.1595L8.79165 4.79826L15.1529 11.1596Z" fill="#EF7F1A"/>
<path d="M5.29261 11.1157V10.054H7.44826L8.5207 11.1264H5.30337V13.2713H8.5207V14.3438H5.30337H4.23093V10.054L5.29261 11.1157Z" fill="#2B2A29"/>
<path d="M12.2582 12.7244H9.04083V12.6064V11.1157V10.0432H10.1133H13.336V11.1157H10.1133V11.652H13.336V11.7753V13.266V14.3384H9.04083V13.266H12.2582V12.7244Z" fill="#2B2A29"/>
</svg>
