<svg width="300" height="73" viewBox="0 0 300 73" fill="none" xmlns="http://www.w3.org/2000/svg">
<g clip-path="url(#clip0_2023_635)">
<path d="M35.9869 72.6552C55.7532 72.6552 71.777 56.468 71.777 36.5001C71.777 16.5322 55.7532 0.344971 35.9869 0.344971C16.2206 0.344971 0.196869 16.5322 0.196869 36.5001C0.196869 56.468 16.2206 72.6552 35.9869 72.6552Z" fill="#EF7F1A" stroke="#2B2A29" stroke-width="0.367729" stroke-miterlimit="22.9256"/>
<path d="M82.7251 25.8718V20.7773H92.9638L98.0574 25.923H82.7762V36.2145H98.0574V41.3603H82.7762H77.6825V20.7773L82.7251 25.8718Z" fill="#2B2A29"/>
<path d="M152.484 33.5905H137.203V33.0245V25.8719V20.7261H142.297H157.604V25.8719H142.297V28.4446H157.604V29.0363V36.1889V41.3345H137.203V36.1889H152.484V33.5905Z" fill="#2B2A29"/>
<path d="M257.442 41.3092V36.1636H262.535V41.3092H257.442Z" fill="#2B2A29"/>
<path d="M112.778 35.1084H104.628V41.2834H100.553V35.1084V24.8169L104.628 28.9593V30.9919H112.778V28.9593V28.9336H104.628V24.8169H112.778H116.853V28.9593V30.9919V45.3999L112.778 41.2834V35.1084Z" fill="#EF7F1A"/>
<path d="M123.017 28.9336V41.3091H118.942V28.9593V24.8169H125.054H131.167H135.242V28.9593V41.3091H131.167V28.9336H129.129V41.3091H125.054V28.9336H123.017Z" fill="#EF7F1A"/>
<path d="M164.225 37.1926H176.45V41.3093H164.225H160.15V35.1343V28.9595V24.8428H176.45V28.9595H164.225V31.0178H176.45V35.1343H164.225V37.1926Z" fill="#EF7F1A"/>
<path d="M182.563 35.1343V41.3093V45.4258L178.488 41.3093V35.1343V31.0178V28.9595V24.8428L182.563 28.9595V31.0178H190.713V28.9595H182.563V24.8428H190.713H194.788V31.0178V35.1343H190.764L194.788 39.1993V41.3093H190.866L184.753 35.1343H182.563Z" fill="#EF7F1A"/>
<path d="M209.153 41.1547L203.855 35.16L196.877 27.2356V24.8428H200.799L206.249 31.0178L209.153 34.3111V24.8428V24.8687V24.8428H213.228V41.3348H209.28H209.153V41.1547Z" fill="#EF7F1A"/>
<path d="M215.163 41.3348V24.8428H219.238V41.3348H215.163Z" fill="#EF7F1A"/>
<path d="M224.79 28.9081V24.8428H232.992L237.066 28.9595H224.841V37.1669H237.066V41.2836H224.841H220.766V24.8428L224.79 28.9081Z" fill="#EF7F1A"/>
<path d="M243.179 37.1926H255.404V41.3093H243.179H239.104V35.1343V28.9595V24.8428H255.404V28.9595H243.179V31.0178H255.404V35.1343H243.179V37.1926Z" fill="#EF7F1A"/>
<path d="M271.348 35.1856H269.157V41.3604L265.082 37.2439V24.8684H269.157V31.0689H271.348L277.46 24.8684H281.382V27.0038L275.321 33.1273L281.382 39.2507V41.3604H277.46L271.348 35.1856Z" fill="#EF7F1A"/>
<path d="M290.984 37.1924H299.771V41.3091H283.471H283.445V38.9121L290.424 30.9704L292.232 28.9336H283.471V24.8426H295.849L295.874 24.8169H299.796V27.2097L292.818 35.1341L290.984 37.1924Z" fill="#EF7F1A"/>
<path d="M88.3792 49.1549H89.0536L90.2394 53.0655L89.3765 53.2834C88.9067 52.3861 88.5518 51.781 88.3057 51.4743C87.9063 50.9785 87.4076 50.5857 86.8098 50.2961C86.2122 50.0065 85.5536 49.8602 84.8343 49.8602C83.9906 49.8602 83.2106 50.0637 82.501 50.4678C81.7915 50.8722 81.2164 51.4655 80.7753 52.2456C80.3339 53.0283 80.1132 53.9086 80.1132 54.8862C80.1132 55.8896 80.3371 56.7869 80.7846 57.5725C81.2322 58.3609 81.8362 58.966 82.597 59.3901C83.3609 59.8144 84.1822 60.0265 85.0644 60.0265C85.8955 60.0265 86.7456 59.8144 87.6118 59.3901C88.4814 58.9628 89.2355 58.3667 89.8717 57.601L90.6226 58.0626C90.2358 58.5785 89.8173 59.0144 89.3666 59.3728C88.6569 59.9489 87.9154 60.3735 87.148 60.6485C86.3808 60.9207 85.5371 61.0584 84.6199 61.0584C82.5903 61.0584 80.9409 60.3846 79.6719 59.0399C78.6238 57.9218 78.0995 56.5915 78.0995 55.0491C78.0995 53.9167 78.3903 52.8873 78.9689 51.9699C79.5507 51.0496 80.3529 50.3213 81.3726 49.7794C82.3921 49.2375 83.4948 48.9651 84.6742 48.9651C85.3039 48.9651 85.8889 49.0424 86.429 49.1972C86.9691 49.3521 87.5188 49.6014 88.0719 49.9426L88.3788 49.1542L88.3792 49.1549ZM91.9204 60.8695V60.1642H92.1539C92.579 60.1642 92.8762 60.1297 93.0426 60.064C93.2119 59.9952 93.324 59.8975 93.3751 59.7686C93.4294 59.6394 93.4548 59.307 93.4548 58.7679V54.8686C93.4548 54.3468 93.4324 54.0227 93.3845 53.8938C93.3366 53.7646 93.2309 53.6616 93.0618 53.5868C92.8923 53.5095 92.5918 53.4723 92.1539 53.4723H91.9204V52.7669H96.6193V53.4723H96.373C95.9289 53.4723 95.6317 53.5037 95.4846 53.5639C95.3377 53.6271 95.2321 53.7389 95.1651 53.8993C95.098 54.0598 95.0662 54.3466 95.0662 54.7651V58.2603L99.9373 54.5216C99.9373 54.1632 99.8638 53.8996 99.7137 53.7274C99.5634 53.5581 99.1958 53.4723 98.6078 53.4723H98.3647V52.7669H103.063V53.4723H102.737C102.219 53.4723 101.884 53.5438 101.734 53.6901C101.584 53.8364 101.51 54.166 101.51 54.6822V58.9626C101.51 59.4788 101.584 59.8056 101.734 59.9489C101.884 60.0924 102.219 60.164 102.737 60.164H103.063V60.8693H98.3647V60.164H98.6078C99.1 60.164 99.4454 60.1008 99.6433 59.9774C99.8384 59.8542 99.9373 59.4873 99.9373 58.8765V55.4848L95.0662 59.2003C95.079 59.51 95.1365 59.7306 95.2355 59.8626C95.3345 59.9973 95.4527 60.0804 95.5838 60.1121C95.7151 60.1464 95.9802 60.1637 96.3732 60.1637H96.6195V60.8691H91.9207L91.9204 60.8695ZM112.687 58.5299L113.282 58.9628C112.109 60.3591 110.699 61.0586 109.059 61.0586C107.778 61.0586 106.697 60.6515 105.818 59.8371C104.939 59.02 104.498 58.0082 104.498 56.7982C104.498 55.9869 104.703 55.2614 105.112 54.6163C105.521 53.9713 106.09 53.4695 106.816 53.1139C107.545 52.7556 108.382 52.5778 109.325 52.5778C110.399 52.5778 111.294 52.8128 112.013 53.2859C112.732 53.7591 113.09 54.235 113.09 54.7137C113.09 54.9718 113.007 55.1697 112.838 55.31C112.668 55.4505 112.476 55.5193 112.262 55.5193C112.15 55.5193 112.042 55.4933 111.933 55.4447C111.827 55.3931 111.719 55.3128 111.604 55.201C111.556 55.1494 111.463 54.9917 111.332 54.7308C111.163 54.404 111.032 54.1859 110.936 54.0741C110.744 53.8507 110.501 53.6727 110.216 53.5438C109.932 53.4149 109.616 53.3517 109.264 53.3517C108.73 53.3517 108.238 53.4836 107.781 53.7445C107.327 54.0081 106.965 54.3952 106.7 54.9054C106.435 55.4158 106.301 56.0264 106.301 56.7376C106.301 57.8385 106.63 58.7128 107.288 59.3607C107.861 59.9198 108.538 60.198 109.331 60.198C109.692 60.198 110.063 60.1434 110.434 60.0346C110.808 59.9255 111.159 59.7679 111.492 59.5559C111.738 59.4066 112.134 59.0628 112.687 58.5295V58.5299ZM117.961 53.61H117.437C116.641 53.61 116.021 53.7649 115.577 54.0716C115.132 54.3813 114.733 54.8859 114.375 55.5882L113.569 55.2443L115.027 52.3716H115.679L115.743 52.7672H121.781L121.855 52.3716H122.507L123.964 55.2443L123.159 55.5882C122.772 54.8487 122.354 54.3325 121.909 54.0431C121.465 53.7535 120.861 53.61 120.097 53.61H119.573V58.7707C119.573 59.2954 119.598 59.6223 119.649 59.7512C119.701 59.8804 119.809 59.9806 119.982 60.0552C120.151 60.1269 120.474 60.1642 120.947 60.1642H121.184V60.8695H116.351V60.1642H116.587C117.047 60.1642 117.364 60.1325 117.53 60.0667C117.696 60.0036 117.811 59.9033 117.872 59.7686C117.933 59.6339 117.962 59.3012 117.962 58.7709V53.6102L117.961 53.61ZM132.533 58.6848L133.128 59.1149C132.674 59.6052 132.233 59.995 131.804 60.2818C131.376 60.5684 130.974 60.7691 130.593 60.8867C130.213 61.0015 129.765 61.0589 129.254 61.0589C128.337 61.0589 127.557 60.8924 126.914 60.5573C126.179 60.1702 125.613 59.6684 125.22 59.0491C124.827 58.4299 124.632 57.6987 124.632 56.8556C124.632 55.9755 124.824 55.2213 125.204 54.5963C125.584 53.9716 126.115 53.4783 126.799 53.1169C127.483 52.7588 128.276 52.578 129.174 52.578C129.842 52.578 130.424 52.6697 130.916 52.8561C131.408 53.0426 131.827 53.3234 132.172 53.6991C132.514 54.0746 132.763 54.5047 132.92 54.9864C133.006 55.2702 133.057 55.6371 133.07 56.0873H126.463C126.444 56.3626 126.435 56.566 126.435 56.7008C126.435 57.4061 126.572 58.0369 126.847 58.5873C127.118 59.1408 127.483 59.5478 127.934 59.8086C128.384 60.0695 128.896 60.1987 129.471 60.1987C129.957 60.1987 130.427 60.0954 130.88 59.889C131.335 59.6855 131.884 59.2813 132.533 58.6848H132.533ZM131.344 55.313C131.251 54.7998 131.117 54.4186 130.948 54.1748C130.775 53.9283 130.532 53.7331 130.219 53.5868C129.903 53.4405 129.548 53.369 129.155 53.369C128.765 53.369 128.394 53.4405 128.052 53.5868C127.71 53.7331 127.425 53.9336 127.198 54.1889C126.969 54.4468 126.77 54.8225 126.604 55.3128H131.344L131.344 55.313ZM134.451 60.8693V60.164H134.684C135.109 60.164 135.407 60.1295 135.573 60.0637C135.742 59.995 135.854 59.8973 135.905 59.7684C135.96 59.6392 135.985 59.3068 135.985 58.7677V54.8683C135.985 54.3466 135.963 54.0225 135.915 53.8936C135.867 53.7644 135.761 53.6614 135.592 53.5866C135.423 53.5093 135.122 53.472 134.684 53.472H134.451V52.7667H137.98L140.904 58.9596L143.733 52.7667H147.511V53.472H147.192C146.671 53.472 146.332 53.5436 146.182 53.6899C146.032 53.8362 145.958 54.1658 145.958 54.682V58.9623C145.958 59.4813 146.035 59.814 146.188 59.9545C146.342 60.095 146.674 60.1637 147.192 60.1637H147.511V60.8691H142.813V60.1637H143.049C143.539 60.1637 143.884 60.1036 144.085 59.986C144.286 59.8684 144.385 59.5015 144.385 58.8878V53.6267L141.029 60.8688H140.275L137.002 53.9364V58.8848C137.002 59.2892 137.034 59.573 137.094 59.7364C137.158 59.8971 137.264 60.0089 137.414 60.0718C137.564 60.132 137.861 60.1635 138.312 60.1635H138.555V60.8688H134.451L134.451 60.8693ZM148.489 60.8693V60.164H148.726C149.186 60.164 149.502 60.1323 149.675 60.0665C149.844 60.0033 149.959 59.9031 150.014 59.7684C150.071 59.6336 150.1 59.301 150.1 58.7677V54.8683C150.1 54.3466 150.074 54.0197 150.023 53.8878C149.972 53.7558 149.864 53.6556 149.694 53.5808C149.521 53.5093 149.199 53.472 148.726 53.472H148.489V52.7667H153.514V53.472H153.271C152.699 53.472 152.334 53.4949 152.184 53.5436C152.031 53.5896 151.912 53.6926 151.832 53.8533C151.752 54.0109 151.711 54.3121 151.711 54.7535V56.2931H152.948C154.121 56.2931 155 56.3392 155.581 56.4281C156.166 56.5167 156.656 56.7433 157.049 57.1047C157.442 57.4658 157.636 57.913 157.636 58.4464C157.636 60.0605 156.179 60.8691 153.261 60.8691H148.489L148.489 60.8693ZM151.711 57.0505V59.436C151.711 59.7454 151.743 59.9346 151.804 59.9978C151.868 60.0637 152.059 60.0952 152.376 60.0952H153.277C155.032 60.0952 155.911 59.5792 155.911 58.5443C155.911 58.1945 155.793 57.8964 155.557 57.644C155.317 57.3947 155.029 57.2341 154.694 57.1596C154.354 57.088 153.881 57.0508 153.277 57.0508H151.711L151.711 57.0505ZM163.064 60.1642V60.8695H158.366V60.1642H158.599C159.024 60.1642 159.319 60.1297 159.485 60.064C159.647 59.9952 159.76 59.8975 159.817 59.7656C159.871 59.6339 159.9 59.301 159.9 58.7679V54.8686C159.9 54.3526 159.878 54.0285 159.83 53.8966C159.782 53.7646 159.676 53.6616 159.507 53.5868C159.338 53.5095 159.037 53.4723 158.599 53.4723H158.366V52.7669H163.064V53.4723H162.822C162.377 53.4723 162.083 53.5037 161.933 53.5639C161.783 53.6271 161.674 53.7359 161.61 53.8966C161.543 54.0572 161.511 54.344 161.511 54.7595V58.885C161.511 59.2894 161.543 59.5732 161.61 59.7339C161.674 59.8973 161.779 60.0091 161.927 60.0721C162.073 60.1323 162.371 60.1637 162.822 60.1637H163.065L163.064 60.1642ZM179.228 48.2773L179.899 48.5039C179.724 49.0715 179.503 49.5046 179.238 49.8026C178.972 50.1007 178.643 50.3072 178.25 50.4246C177.857 50.5421 177.275 50.5996 176.502 50.5996H175.012C174.28 50.5996 173.689 50.6998 173.232 50.9007C172.778 51.1014 172.398 51.4683 172.094 52.0047C171.793 52.5378 171.608 53.2975 171.538 54.2838L171.678 54.3755C172.398 53.1771 173.606 52.5778 175.313 52.5778C176.777 52.5778 177.902 52.985 178.685 53.7991C179.468 54.6162 179.861 55.6197 179.861 56.8123C179.861 58.0482 179.449 59.063 178.62 59.86C177.793 60.6598 176.658 61.0584 175.217 61.0584C174.143 61.0584 173.26 60.8406 172.57 60.4047C171.879 59.9688 171.384 59.4126 171.087 58.739C170.786 58.0651 170.636 57.0845 170.636 55.7973C170.636 53.951 170.844 52.5718 171.259 51.663C171.675 50.7542 172.193 50.0861 172.813 49.659C173.433 49.2317 174.373 49.0167 175.635 49.0167H177.403C178.058 49.0167 178.49 48.9681 178.701 48.8676C178.908 48.7674 179.084 48.5694 179.228 48.2769L179.228 48.2773ZM178.058 56.7866C178.058 55.7318 177.806 54.9003 177.301 54.2954C176.799 53.6905 176.108 53.3866 175.23 53.3866C174.453 53.3866 173.801 53.6905 173.27 54.2954C172.743 54.9003 172.478 55.7605 172.478 56.8785C172.478 58.0109 172.73 58.8656 173.235 59.439C173.737 60.0154 174.408 60.3019 175.239 60.3019C176.14 60.3019 176.837 59.9751 177.326 59.3214C177.815 58.6707 178.058 57.8248 178.058 56.7869V56.7866ZM189.296 58.6848L189.891 59.1149C189.437 59.6052 188.996 59.995 188.568 60.2818C188.14 60.5684 187.737 60.7691 187.356 60.8867C186.976 61.0015 186.529 61.0589 186.017 61.0589C185.1 61.0589 184.32 60.8924 183.678 60.5573C182.942 60.1702 182.377 59.6684 181.983 59.0491C181.59 58.4299 181.395 57.6987 181.395 56.8556C181.395 55.9755 181.587 55.2213 181.968 54.5963C182.348 53.9716 182.879 53.4783 183.563 53.1169C184.247 52.7588 185.039 52.578 185.938 52.578C186.606 52.578 187.188 52.6697 187.68 52.8561C188.172 53.0426 188.59 53.3234 188.935 53.6991C189.278 54.0746 189.527 54.5047 189.683 54.9864C189.77 55.2702 189.821 55.6371 189.834 56.0873H183.227C183.208 56.3626 183.198 56.566 183.198 56.7008C183.198 57.4061 183.336 58.0369 183.61 58.5873C183.882 59.1408 184.246 59.5478 184.697 59.8086C185.148 60.0695 185.659 60.1987 186.235 60.1987C186.72 60.1987 187.19 60.0954 187.644 59.889C188.098 59.6855 188.648 59.2813 189.297 58.6848H189.296ZM188.108 55.313C188.015 54.7998 187.881 54.4186 187.711 54.1748C187.538 53.9283 187.295 53.7331 186.982 53.5868C186.666 53.4405 186.311 53.369 185.918 53.369C185.528 53.369 185.157 53.4405 184.815 53.5868C184.473 53.7331 184.189 53.9336 183.962 54.1889C183.732 54.4468 183.533 54.8225 183.367 55.3128H188.107L188.108 55.313ZM191.329 54.9947L192.672 52.3542H193.324L193.596 52.8588C194.123 52.6382 194.746 52.5262 195.462 52.5262C196.466 52.5262 197.256 52.704 197.831 53.0593C198.406 53.4118 198.694 53.8966 198.694 54.51C198.694 55.482 197.99 56.1788 196.587 56.5973C198.297 56.8035 199.154 57.4887 199.154 58.6501C199.154 59.367 198.818 59.9459 198.144 60.3904C197.47 60.8348 196.565 61.0584 195.43 61.0584C193.695 61.0584 192.234 60.3501 191.042 58.9311L191.636 58.4952C192.669 59.6306 193.848 60.1982 195.178 60.1982C195.961 60.1982 196.534 60.0348 196.898 59.7079C197.265 59.3811 197.447 58.9797 197.447 58.498C197.447 58.1197 197.252 57.7841 196.859 57.489C196.466 57.1966 195.648 57.0503 194.405 57.0503H193.899V56.345H194.405C196.179 56.345 197.064 55.7829 197.064 54.6591C197.064 54.1889 196.885 53.8419 196.527 53.6186C196.169 53.3949 195.709 53.2831 195.146 53.2831C194.554 53.2831 194.011 53.4209 193.519 53.6989C193.027 53.9771 192.566 54.5218 192.135 55.3304L191.33 54.995L191.329 54.9947ZM205.208 52.5778C206.122 52.5778 206.911 52.747 207.582 53.088C208.25 53.4292 208.778 53.9253 209.161 54.579C209.548 55.2327 209.74 55.9753 209.74 56.8123C209.74 57.6496 209.542 58.395 209.148 59.0487C208.752 59.7022 208.215 60.201 207.535 60.5424C206.854 60.8864 206.042 61.0584 205.096 61.0584C203.59 61.0584 202.462 60.6369 201.704 59.7941C200.95 58.9512 200.573 57.9621 200.573 56.8209C200.573 55.9894 200.768 55.2528 201.161 54.6077C201.551 53.9628 202.101 53.4637 202.807 53.1081C203.514 52.7556 204.313 52.5778 205.207 52.5778H205.208ZM205.137 53.3864C204.431 53.3864 203.833 53.6387 203.344 54.1403C202.724 54.7651 202.414 55.6741 202.414 56.8697C202.414 58.0193 202.676 58.8941 203.203 59.4987C203.683 60.035 204.329 60.3015 205.147 60.3015C205.674 60.3015 206.144 60.1755 206.557 59.926C206.969 59.6737 207.301 59.2723 207.557 58.7248C207.81 58.1741 207.937 57.5262 207.937 56.7866C207.937 56.0584 207.8 55.4105 207.528 54.8343C207.317 54.3785 207.001 54.0202 206.576 53.7679C206.151 53.5128 205.671 53.3866 205.137 53.3866V53.3864ZM215.896 60.164V60.8693H211.198V60.164H211.431C211.856 60.164 212.153 60.1295 212.32 60.0637C212.489 59.995 212.601 59.8973 212.652 59.7684C212.706 59.6392 212.732 59.3068 212.732 58.7677V54.8683C212.732 54.3466 212.71 54.0225 212.662 53.8936C212.614 53.7644 212.508 53.6614 212.339 53.5866C212.169 53.5093 211.869 53.472 211.431 53.472H211.198V52.7667H222.34V53.472H222.014C221.496 53.472 221.161 53.5436 221.011 53.6899C220.86 53.8362 220.787 54.1658 220.787 54.682V58.9623C220.787 59.4785 220.861 59.8054 221.011 59.9487C221.161 60.0922 221.496 60.1637 222.014 60.1637H222.34V60.8691H217.642V60.1637H217.885C218.377 60.1637 218.722 60.1005 218.92 59.9772C219.115 59.854 219.214 59.4899 219.214 58.8848V53.5924H214.343V58.8848C214.343 59.2892 214.375 59.573 214.442 59.7364C214.506 59.8971 214.615 60.0089 214.765 60.0718C214.915 60.132 215.209 60.1635 215.654 60.1635H215.897L215.896 60.164ZM230.446 56.0181L230.43 55.1007C230.43 54.4787 230.235 54.0343 229.848 53.7676C229.461 53.501 228.912 53.369 228.205 53.369C227.857 53.369 227.55 53.4065 227.288 53.4808C227.023 53.5581 226.812 53.6616 226.655 53.7936C226.495 53.9253 226.377 54.0743 226.3 54.2408C226.272 54.304 226.195 54.5389 226.077 54.9547C225.933 55.4565 225.642 55.7086 225.204 55.7086C224.955 55.7086 224.753 55.6341 224.6 55.488C224.446 55.3389 224.37 55.1382 224.37 54.8887C224.37 54.5188 224.523 54.1575 224.83 53.8049C225.134 53.4496 225.6 53.157 226.23 52.9248C226.856 52.6926 227.598 52.578 228.455 52.578C229.254 52.578 229.938 52.6868 230.503 52.9079C231.072 53.1285 231.491 53.4468 231.76 53.8598C231.948 54.1436 232.041 54.6625 232.041 55.4135V58.6362C232.041 59.0922 232.057 59.3901 232.089 59.5306C232.156 59.7714 232.278 59.9492 232.45 60.0695C232.619 60.1901 232.843 60.2503 233.118 60.2503C233.406 60.2503 233.751 60.1929 234.151 60.0753V60.8066C233.63 60.9413 233.166 61.0073 232.751 61.0073C232.306 61.0073 231.932 60.9526 231.629 60.8408C231.325 60.729 231.076 60.5656 230.884 60.3505C230.689 60.1357 230.564 59.8776 230.507 59.5822C229.759 60.107 229.081 60.4767 228.474 60.689C227.87 60.901 227.256 61.0075 226.639 61.0075C225.779 61.0075 225.079 60.7982 224.542 60.3795C224.005 59.961 223.737 59.4707 223.737 58.9059C223.737 58.5647 223.836 58.2436 224.034 57.9369C224.232 57.6299 224.533 57.3575 224.936 57.1225C225.342 56.8903 225.978 56.6839 226.84 56.5033C227.707 56.3255 228.909 56.1651 230.446 56.0188V56.0181ZM230.44 56.7408C228.982 56.9301 228.081 57.0621 227.736 57.1336C227.048 57.2741 226.559 57.429 226.265 57.5952C225.968 57.7644 225.757 57.945 225.632 58.1371C225.508 58.3292 225.444 58.5357 225.444 58.7535C225.444 58.9714 225.514 59.1806 225.655 59.3841C225.795 59.5904 225.997 59.751 226.253 59.8686C226.512 59.9862 226.783 60.0436 227.074 60.0436C227.48 60.0436 227.943 59.9577 228.458 59.7827C228.972 59.6105 229.631 59.2723 230.436 58.7707L230.44 56.7408ZM243.087 58.5299L243.682 58.9628C242.509 60.3591 241.099 61.0586 239.46 61.0586C238.178 61.0586 237.097 60.6515 236.219 59.8371C235.34 59.02 234.898 58.0082 234.898 56.7982C234.898 55.9869 235.103 55.2614 235.512 54.6163C235.921 53.9713 236.49 53.4695 237.216 53.1139C237.945 52.7556 238.782 52.5778 239.725 52.5778C240.799 52.5778 241.694 52.8128 242.413 53.2859C243.132 53.7591 243.49 54.235 243.49 54.7137C243.49 54.9718 243.407 55.1697 243.238 55.31C243.068 55.4505 242.876 55.5193 242.663 55.5193C242.551 55.5193 242.442 55.4933 242.333 55.4447C242.228 55.3931 242.119 55.3128 242.004 55.201C241.956 55.1494 241.863 54.9917 241.732 54.7308C241.563 54.404 241.432 54.1859 241.336 54.0741C241.144 53.8507 240.901 53.6727 240.617 53.5438C240.332 53.4149 240.016 53.3517 239.664 53.3517C239.13 53.3517 238.638 53.4836 238.181 53.7445C237.727 54.0081 237.366 54.3952 237.101 54.9054C236.835 55.4158 236.701 56.0264 236.701 56.7376C236.701 57.8385 237.03 58.7128 237.689 59.3607C238.261 59.9198 238.939 60.198 239.731 60.198C240.093 60.198 240.464 60.1434 240.834 60.0346C241.208 59.9255 241.56 59.7679 241.892 59.5559C242.138 59.4066 242.534 59.0628 243.087 58.5295V58.5299ZM249.455 60.1642V60.8695H244.756V60.1642H244.989C245.414 60.1642 245.712 60.1297 245.878 60.064C246.047 59.9952 246.159 59.8975 246.21 59.7686C246.265 59.6394 246.29 59.307 246.29 58.7679V54.8686C246.29 54.3468 246.268 54.0227 246.22 53.8938C246.172 53.7646 246.066 53.6616 245.897 53.5868C245.728 53.5095 245.427 53.4723 244.989 53.4723H244.756V52.7669H249.455V53.4723H249.212C248.768 53.4723 248.474 53.5037 248.326 53.5639C248.179 53.6271 248.074 53.7359 248.004 53.8966C247.936 54.0544 247.901 54.341 247.901 54.754V56.3452H252.773V54.754C252.773 54.1519 252.674 53.7878 252.479 53.6616C252.28 53.5355 251.935 53.4723 251.443 53.4723H251.2V52.7669H255.899V53.4723H255.572C255.055 53.4723 254.719 53.5438 254.569 53.6901C254.419 53.8364 254.345 54.166 254.345 54.6822V58.9626C254.345 59.4788 254.419 59.8056 254.569 59.9489C254.719 60.0924 255.055 60.164 255.572 60.164H255.899V60.8693H251.2V60.164H251.443C251.935 60.164 252.281 60.1008 252.479 59.9774C252.674 59.8542 252.773 59.4901 252.773 58.885V57.0674H247.901V58.885C247.901 59.2894 247.933 59.5732 248 59.7339C248.064 59.8973 248.173 60.0091 248.323 60.0721C248.474 60.1323 248.768 60.1637 249.212 60.1637H249.455V60.1642ZM261.968 52.578C262.882 52.578 263.672 52.7473 264.343 53.0882C265.011 53.4294 265.538 53.9255 265.922 54.5792C266.309 55.2329 266.5 55.9755 266.5 56.8126C266.5 57.6498 266.302 58.3952 265.909 59.0489C265.513 59.7024 264.976 60.2012 264.295 60.5427C263.614 60.8867 262.802 61.0586 261.856 61.0586C260.351 61.0586 259.223 60.6371 258.465 59.7943C257.71 58.9515 257.333 57.9623 257.333 56.8211C257.333 55.9896 257.528 55.2531 257.921 54.6079C258.311 53.963 258.861 53.4639 259.568 53.1084C260.274 52.7558 261.073 52.578 261.968 52.578H261.968ZM261.898 53.3866C261.191 53.3866 260.594 53.6389 260.105 54.1406C259.485 54.7653 259.175 55.6744 259.175 56.87C259.175 58.0195 259.437 58.8943 259.964 59.4989C260.443 60.0353 261.089 60.3017 261.907 60.3017C262.435 60.3017 262.905 60.1758 263.317 59.9262C263.729 59.6739 264.062 59.2725 264.317 58.7251C264.57 58.1744 264.698 57.5264 264.698 56.7869C264.698 56.0586 264.56 55.4107 264.289 54.8345C264.078 54.3787 263.761 54.0204 263.336 53.7681C262.911 53.513 262.432 53.3868 261.898 53.3868V53.3866ZM276.262 58.5302L276.857 58.963C275.684 60.3593 274.274 61.0589 272.634 61.0589C271.353 61.0589 270.272 60.6517 269.393 59.8373C268.514 59.0202 268.073 58.0084 268.073 56.7984C268.073 55.9871 268.278 55.2616 268.687 54.6165C269.096 53.9716 269.665 53.4697 270.391 53.1142C271.119 52.7558 271.957 52.578 272.9 52.578C273.974 52.578 274.869 52.813 275.588 53.2861C276.307 53.7593 276.665 54.2352 276.665 54.7139C276.665 54.972 276.582 55.17 276.413 55.3102C276.243 55.4507 276.051 55.5195 275.837 55.5195C275.725 55.5195 275.617 55.4936 275.508 55.445C275.402 55.3933 275.294 55.313 275.179 55.2012C275.131 55.1496 275.038 54.9919 274.907 54.7311C274.738 54.4042 274.606 54.1862 274.511 54.0743C274.319 53.851 274.076 53.673 273.791 53.544C273.507 53.4151 273.191 53.3519 272.839 53.3519C272.305 53.3519 271.813 53.4838 271.356 53.7447C270.902 54.0084 270.54 54.3954 270.275 54.9056C270.01 55.416 269.876 56.0267 269.876 56.7378C269.876 57.8387 270.205 58.713 270.863 59.361C271.436 59.92 272.113 60.1982 272.906 60.1982C273.267 60.1982 273.638 60.1436 274.009 60.0348C274.383 59.9258 274.734 59.7681 275.067 59.5561C275.313 59.4068 275.709 59.063 276.262 58.5297L276.262 58.5302ZM281.536 53.6102H281.012C280.216 53.6102 279.596 53.7651 279.152 54.0718C278.707 54.3815 278.308 54.8862 277.95 55.5885L277.144 55.2445L278.602 52.3718H279.254L279.318 52.7674H285.356L285.429 52.3718H286.082L287.539 55.2445L286.734 55.5885C286.347 54.8489 285.929 54.3327 285.484 54.0433C285.04 53.7537 284.436 53.6102 283.672 53.6102H283.148V58.7709C283.148 59.2957 283.173 59.6225 283.224 59.7515C283.275 59.8806 283.384 59.9809 283.557 60.0554C283.726 60.1272 284.049 60.1644 284.522 60.1644H284.758V60.8698H279.925V60.1644H280.162C280.622 60.1644 280.938 60.1327 281.105 60.067C281.271 60.0038 281.386 59.9035 281.447 59.7688C281.507 59.6341 281.536 59.3015 281.536 58.7711V53.6105V53.6102ZM288.092 60.8698V60.1644H288.325C288.75 60.1644 289.047 60.1299 289.214 60.0642C289.383 59.9954 289.495 59.8978 289.546 59.7688C289.6 59.6397 289.626 59.3072 289.626 58.7681V54.8688C289.626 54.347 289.604 54.023 289.556 53.894C289.508 53.7649 289.402 53.6618 289.233 53.5871C289.063 53.5098 288.763 53.4725 288.325 53.4725H288.092V52.7672H292.79V53.4725H292.544C292.1 53.4725 291.802 53.504 291.656 53.5642C291.509 53.6274 291.403 53.7392 291.336 53.8996C291.269 54.06 291.237 54.3468 291.237 54.7653V58.2605L296.108 54.5218C296.108 54.1635 296.035 53.8998 295.884 53.7276C295.734 53.5584 295.367 53.4725 294.778 53.4725H294.535V52.7672H299.234V53.4725H298.908C298.39 53.4725 298.054 53.544 297.904 53.6903C297.754 53.8366 297.681 54.1662 297.681 54.6825V58.9628C297.681 59.479 297.754 59.8059 297.904 59.9492C298.054 60.0927 298.39 60.1642 298.908 60.1642H299.234V60.8695H294.535V60.1642H294.778C295.271 60.1642 295.616 60.101 295.814 59.9776C296.009 59.8545 296.108 59.4876 296.108 58.8767V55.485L291.237 59.2005C291.25 59.5103 291.307 59.7309 291.407 59.8628C291.505 59.9975 291.624 60.0806 291.755 60.1123C291.886 60.1466 292.151 60.164 292.544 60.164H292.791V60.8693H288.092L288.092 60.8698Z" fill="#2B2A29"/>
<path d="M64.1021 34.0806L7.1844 34.0801L35.6434 5.3313L64.1021 34.0806Z" fill="#2B2A29" stroke="#EF7F1A" stroke-width="0.367729" stroke-miterlimit="22.9256"/>
<path d="M64.3038 40.363L7.38605 40.3628L35.845 11.6138L64.3038 40.363Z" fill="#2B2A29" stroke="#EF7F1A" stroke-width="0.919429" stroke-miterlimit="22.9256"/>
<path d="M64.1026 46.8152L7.18486 46.8147L35.6438 18.0659L64.1026 46.8152Z" fill="#EF7F1A"/>
<path d="M19.99 46.617V41.8186H29.6338L34.4317 46.6654H20.0381V56.359H34.4317V61.206H20.0381H15.2402V41.8186L19.99 46.617Z" fill="#2B2A29"/>
<path d="M51.1522 53.8872H36.7587V53.3541V46.617V41.77H41.5565H55.9741V46.617H41.5565V49.0404H55.9741V49.5978V56.3349V61.1817H36.7587V56.3349H51.1522V53.8872Z" fill="#2B2A29"/>
</g>
<defs>
<clipPath id="clip0_2023_635">
<rect width="299.796" height="72.7081" fill="white" transform="translate(0 0.145996)"/>
</clipPath>
</defs>
</svg>
