<svg width="45" height="43" viewBox="0 0 45 43" fill="none" xmlns="http://www.w3.org/2000/svg">
<rect x="0.545166" y="0.065918" width="43.7402" height="42.7211" rx="21.3606" fill="#5BDD1E"/>
<path d="M29.8803 13.7527C28.8816 12.744 27.6921 11.9441 26.381 11.3999C25.07 10.8556 23.6637 10.5779 22.2442 10.5828C16.2965 10.5828 11.4491 15.4303 11.4491 21.378C11.4491 23.2843 11.9502 25.1361 12.887 26.7701L11.3619 32.3692L17.0809 30.8659C18.6604 31.7265 20.4359 32.184 22.2442 32.184C28.1919 32.184 33.0393 27.3365 33.0393 21.3889C33.0393 18.5022 31.9173 15.7898 29.8803 13.7527ZM22.2442 30.3539C20.632 30.3539 19.0525 29.9182 17.6691 29.1012L17.3423 28.9051L13.9436 29.7984L14.8478 26.4869L14.6299 26.1492C13.7342 24.7189 13.2586 23.0656 13.2573 21.378C13.2573 16.4325 17.2878 12.402 22.2333 12.402C24.6298 12.402 26.8847 13.3388 28.5731 15.0381C29.4092 15.8703 30.0717 16.8602 30.5224 17.9503C30.973 19.0405 31.2028 20.2092 31.1984 21.3889C31.2202 26.3343 27.1897 30.3539 22.2442 30.3539ZM27.1679 23.6437C26.8956 23.513 25.5666 22.8594 25.327 22.7614C25.0764 22.6742 24.9021 22.6307 24.717 22.8921C24.5318 23.1644 24.0198 23.7745 23.8673 23.9487C23.7148 24.1339 23.5514 24.1557 23.2791 24.0141C23.0067 23.8834 22.1353 23.5893 21.1113 22.6742C20.3052 21.9553 19.7715 21.0729 19.6081 20.8006C19.4556 20.5283 19.5863 20.3867 19.7279 20.2451C19.8477 20.1252 20.0002 19.9292 20.1309 19.7767C20.2617 19.6242 20.3161 19.5043 20.4033 19.33C20.4904 19.1449 20.4468 18.9924 20.3815 18.8616C20.3161 18.7309 19.7715 17.402 19.5536 16.8573C19.3357 16.3344 19.107 16.3998 18.9436 16.3889H18.4207C18.2355 16.3889 17.9523 16.4542 17.7018 16.7266C17.4621 16.9989 16.765 17.6525 16.765 18.9815C16.765 20.3104 17.7344 21.5958 17.8652 21.7701C17.9959 21.9553 19.7715 24.6786 22.473 25.8442C23.1157 26.1274 23.6168 26.2908 24.0089 26.4106C24.6516 26.6176 25.2398 26.5849 25.7082 26.5195C26.2311 26.4433 27.3095 25.8659 27.5274 25.2341C27.7562 24.6023 27.7562 24.0686 27.6799 23.9487C27.6037 23.8289 27.4403 23.7745 27.1679 23.6437Z" fill="white"/>
</svg>
